<mxfile host="app.diagrams.net" modified="2021-12-17T07:54:30.006Z" agent="5.0 (Macintosh; Intel Mac OS X 10_15_7) AppleWebKit/537.36 (KHTML, like Gecko) Chrome/96.0.4664.93 Safari/537.36" etag="Dsor4nDLTyqw0bDzvYDk" version="15.9.6" type="github">
  <diagram id="suTTILTwVJ8s96bWYmHb" name="Page-1">
    <mxGraphModel dx="2253" dy="712" grid="1" gridSize="10" guides="1" tooltips="1" connect="1" arrows="1" fold="1" page="1" pageScale="1" pageWidth="827" pageHeight="1169" math="0" shadow="0">
      <root>
        <mxCell id="0" />
        <mxCell id="1" parent="0" />
        <mxCell id="IzLwQXIFzaAnTu4mcyQ_-225" value="" style="rounded=0;whiteSpace=wrap;html=1;fillColor=#f9f7ed;strokeColor=#36393d;" vertex="1" parent="1">
          <mxGeometry x="105" y="17" width="975" height="443" as="geometry" />
        </mxCell>
        <mxCell id="IzLwQXIFzaAnTu4mcyQ_-1" value="" style="rounded=0;whiteSpace=wrap;html=1;fontSize=16;fillColor=#f9f7ed;strokeColor=#36393d;" vertex="1" parent="1">
          <mxGeometry x="-60" y="760" width="1000" height="430" as="geometry" />
        </mxCell>
        <mxCell id="IzLwQXIFzaAnTu4mcyQ_-2" value="" style="ellipse;whiteSpace=wrap;html=1;aspect=fixed;fontSize=16;fillColor=#dae8fc;strokeColor=#6c8ebf;" vertex="1" parent="1">
          <mxGeometry x="591" y="47.34" width="39" height="39" as="geometry" />
        </mxCell>
        <mxCell id="IzLwQXIFzaAnTu4mcyQ_-3" value="" style="ellipse;whiteSpace=wrap;html=1;aspect=fixed;fontSize=16;fillColor=#dae8fc;strokeColor=#6c8ebf;" vertex="1" parent="1">
          <mxGeometry x="359.99957746478873" y="151.6570731707317" width="35.563380281690144" height="35.563380281690144" as="geometry" />
        </mxCell>
        <mxCell id="IzLwQXIFzaAnTu4mcyQ_-4" style="edgeStyle=none;rounded=0;orthogonalLoop=1;jettySize=auto;html=1;entryX=0.5;entryY=0;entryDx=0;entryDy=0;exitX=0.5;exitY=1;exitDx=0;exitDy=0;fontSize=16;fillColor=#dae8fc;strokeColor=#6c8ebf;" edge="1" parent="1" source="IzLwQXIFzaAnTu4mcyQ_-2" target="IzLwQXIFzaAnTu4mcyQ_-3">
          <mxGeometry relative="1" as="geometry" />
        </mxCell>
        <mxCell id="IzLwQXIFzaAnTu4mcyQ_-8" style="edgeStyle=none;rounded=0;orthogonalLoop=1;jettySize=auto;html=1;entryX=0.5;entryY=0;entryDx=0;entryDy=0;exitX=0.5;exitY=1;exitDx=0;exitDy=0;fontSize=16;fillColor=#dae8fc;strokeColor=#6c8ebf;" edge="1" parent="1" source="IzLwQXIFzaAnTu4mcyQ_-2" target="IzLwQXIFzaAnTu4mcyQ_-189">
          <mxGeometry relative="1" as="geometry">
            <mxPoint x="756.6467605633802" y="151.65707317073168" as="targetPoint" />
          </mxGeometry>
        </mxCell>
        <mxCell id="IzLwQXIFzaAnTu4mcyQ_-11" value="" style="ellipse;whiteSpace=wrap;html=1;aspect=fixed;fontSize=16;fillColor=#dae8fc;strokeColor=#6c8ebf;" vertex="1" parent="1">
          <mxGeometry x="258.2221126760564" y="239.99756097560967" width="35.563380281690144" height="35.563380281690144" as="geometry" />
        </mxCell>
        <mxCell id="IzLwQXIFzaAnTu4mcyQ_-12" style="edgeStyle=none;rounded=0;orthogonalLoop=1;jettySize=auto;html=1;entryX=0.5;entryY=0;entryDx=0;entryDy=0;exitX=0.5;exitY=1;exitDx=0;exitDy=0;fontSize=16;fillColor=#dae8fc;strokeColor=#6c8ebf;" edge="1" parent="1" source="IzLwQXIFzaAnTu4mcyQ_-3" target="IzLwQXIFzaAnTu4mcyQ_-11">
          <mxGeometry relative="1" as="geometry" />
        </mxCell>
        <mxCell id="IzLwQXIFzaAnTu4mcyQ_-14" style="edgeStyle=none;rounded=0;orthogonalLoop=1;jettySize=auto;html=1;exitX=0.5;exitY=1;exitDx=0;exitDy=0;fontSize=16;fillColor=#dae8fc;strokeColor=#6c8ebf;" edge="1" parent="1" source="IzLwQXIFzaAnTu4mcyQ_-3">
          <mxGeometry relative="1" as="geometry">
            <mxPoint x="500" y="240" as="targetPoint" />
          </mxGeometry>
        </mxCell>
        <mxCell id="IzLwQXIFzaAnTu4mcyQ_-102" value="L1" style="text;html=1;align=center;verticalAlign=middle;resizable=0;points=[];autosize=1;strokeColor=none;fillColor=none;fontSize=16;" vertex="1" parent="1">
          <mxGeometry x="150.00436619718312" y="56.84024390243903" width="30" height="20" as="geometry" />
        </mxCell>
        <mxCell id="IzLwQXIFzaAnTu4mcyQ_-103" value="L2" style="text;html=1;align=center;verticalAlign=middle;resizable=0;points=[];autosize=1;strokeColor=none;fillColor=none;fontSize=16;" vertex="1" parent="1">
          <mxGeometry x="150.0069014084507" y="159.4380487804878" width="30" height="20" as="geometry" />
        </mxCell>
        <mxCell id="IzLwQXIFzaAnTu4mcyQ_-104" value="L3" style="text;html=1;align=center;verticalAlign=middle;resizable=0;points=[];autosize=1;strokeColor=none;fillColor=none;fontSize=16;" vertex="1" parent="1">
          <mxGeometry x="150.00436619718312" y="247.77487804878047" width="30" height="20" as="geometry" />
        </mxCell>
        <mxCell id="IzLwQXIFzaAnTu4mcyQ_-105" value="L4" style="text;html=1;align=center;verticalAlign=middle;resizable=0;points=[];autosize=1;strokeColor=none;fillColor=none;fontSize=16;" vertex="1" parent="1">
          <mxGeometry x="150.00436619718312" y="347.560731707317" width="30" height="20" as="geometry" />
        </mxCell>
        <mxCell id="IzLwQXIFzaAnTu4mcyQ_-106" value="二叉树" style="text;html=1;align=center;verticalAlign=middle;resizable=0;points=[];autosize=1;strokeColor=none;fillColor=none;fontSize=16;" vertex="1" parent="1">
          <mxGeometry x="570.7746478873239" y="19.99731707317073" width="60" height="20" as="geometry" />
        </mxCell>
        <mxCell id="IzLwQXIFzaAnTu4mcyQ_-129" value="" style="group" vertex="1" connectable="0" parent="1">
          <mxGeometry x="206" y="275.56" width="140" height="99.32" as="geometry" />
        </mxCell>
        <mxCell id="IzLwQXIFzaAnTu4mcyQ_-125" value="" style="ellipse;whiteSpace=wrap;html=1;aspect=fixed;fontSize=16;fillColor=#dae8fc;strokeColor=#6c8ebf;" vertex="1" parent="IzLwQXIFzaAnTu4mcyQ_-129">
          <mxGeometry y="65.17986588194945" width="28.360225405627443" height="28.360225405627443" as="geometry" />
        </mxCell>
        <mxCell id="IzLwQXIFzaAnTu4mcyQ_-126" style="edgeStyle=none;rounded=0;orthogonalLoop=1;jettySize=auto;html=1;entryX=0.5;entryY=0;entryDx=0;entryDy=0;exitX=0.5;exitY=1;exitDx=0;exitDy=0;fontSize=16;fillColor=#dae8fc;strokeColor=#6c8ebf;" edge="1" parent="IzLwQXIFzaAnTu4mcyQ_-129" target="IzLwQXIFzaAnTu4mcyQ_-125">
          <mxGeometry relative="1" as="geometry">
            <mxPoint x="69.66506854590253" as="sourcePoint" />
          </mxGeometry>
        </mxCell>
        <mxCell id="IzLwQXIFzaAnTu4mcyQ_-127" value="" style="ellipse;whiteSpace=wrap;html=1;aspect=fixed;fontSize=16;fillColor=#dae8fc;strokeColor=#6c8ebf;" vertex="1" parent="IzLwQXIFzaAnTu4mcyQ_-129">
          <mxGeometry x="111.63977459437254" y="65.17986588194945" width="28.360225405627443" height="28.360225405627443" as="geometry" />
        </mxCell>
        <mxCell id="IzLwQXIFzaAnTu4mcyQ_-128" style="edgeStyle=none;rounded=0;orthogonalLoop=1;jettySize=auto;html=1;entryX=0.5;entryY=0;entryDx=0;entryDy=0;exitX=0.5;exitY=1;exitDx=0;exitDy=0;fontSize=16;fillColor=#dae8fc;strokeColor=#6c8ebf;" edge="1" parent="IzLwQXIFzaAnTu4mcyQ_-129" target="IzLwQXIFzaAnTu4mcyQ_-127">
          <mxGeometry relative="1" as="geometry">
            <mxPoint x="69.66506854590253" as="sourcePoint" />
          </mxGeometry>
        </mxCell>
        <mxCell id="IzLwQXIFzaAnTu4mcyQ_-149" value="" style="group" vertex="1" connectable="0" parent="1">
          <mxGeometry x="180" y="368.56" width="80" height="80" as="geometry" />
        </mxCell>
        <mxCell id="IzLwQXIFzaAnTu4mcyQ_-150" value="" style="ellipse;whiteSpace=wrap;html=1;aspect=fixed;fontSize=16;fillColor=#dae8fc;strokeColor=#6c8ebf;" vertex="1" parent="IzLwQXIFzaAnTu4mcyQ_-149">
          <mxGeometry y="52.500898817518696" width="16.205843088929967" height="16.205843088929967" as="geometry" />
        </mxCell>
        <mxCell id="IzLwQXIFzaAnTu4mcyQ_-151" style="edgeStyle=none;rounded=0;orthogonalLoop=1;jettySize=auto;html=1;entryX=0.5;entryY=0;entryDx=0;entryDy=0;exitX=0.5;exitY=1;exitDx=0;exitDy=0;fontSize=16;fillColor=#dae8fc;strokeColor=#6c8ebf;" edge="1" parent="IzLwQXIFzaAnTu4mcyQ_-149" target="IzLwQXIFzaAnTu4mcyQ_-150">
          <mxGeometry relative="1" as="geometry">
            <mxPoint x="39.808610597658586" as="sourcePoint" />
          </mxGeometry>
        </mxCell>
        <mxCell id="IzLwQXIFzaAnTu4mcyQ_-152" value="" style="ellipse;whiteSpace=wrap;html=1;aspect=fixed;fontSize=16;fillColor=#dae8fc;strokeColor=#6c8ebf;" vertex="1" parent="IzLwQXIFzaAnTu4mcyQ_-149">
          <mxGeometry x="63.79415691107002" y="52.500898817518696" width="16.205843088929967" height="16.205843088929967" as="geometry" />
        </mxCell>
        <mxCell id="IzLwQXIFzaAnTu4mcyQ_-153" style="edgeStyle=none;rounded=0;orthogonalLoop=1;jettySize=auto;html=1;entryX=0.5;entryY=0;entryDx=0;entryDy=0;exitX=0.5;exitY=1;exitDx=0;exitDy=0;fontSize=16;fillColor=#dae8fc;strokeColor=#6c8ebf;" edge="1" parent="IzLwQXIFzaAnTu4mcyQ_-149" target="IzLwQXIFzaAnTu4mcyQ_-152">
          <mxGeometry relative="1" as="geometry">
            <mxPoint x="39.808610597658586" as="sourcePoint" />
          </mxGeometry>
        </mxCell>
        <mxCell id="IzLwQXIFzaAnTu4mcyQ_-167" value="" style="group" vertex="1" connectable="0" parent="1">
          <mxGeometry x="291" y="367.56" width="80" height="80" as="geometry" />
        </mxCell>
        <mxCell id="IzLwQXIFzaAnTu4mcyQ_-168" value="" style="ellipse;whiteSpace=wrap;html=1;aspect=fixed;fontSize=16;fillColor=#dae8fc;strokeColor=#6c8ebf;" vertex="1" parent="IzLwQXIFzaAnTu4mcyQ_-167">
          <mxGeometry y="52.500898817518696" width="16.205843088929967" height="16.205843088929967" as="geometry" />
        </mxCell>
        <mxCell id="IzLwQXIFzaAnTu4mcyQ_-169" style="edgeStyle=none;rounded=0;orthogonalLoop=1;jettySize=auto;html=1;entryX=0.5;entryY=0;entryDx=0;entryDy=0;exitX=0.5;exitY=1;exitDx=0;exitDy=0;fontSize=16;fillColor=#dae8fc;strokeColor=#6c8ebf;" edge="1" parent="IzLwQXIFzaAnTu4mcyQ_-167" target="IzLwQXIFzaAnTu4mcyQ_-168">
          <mxGeometry relative="1" as="geometry">
            <mxPoint x="39.808610597658586" as="sourcePoint" />
          </mxGeometry>
        </mxCell>
        <mxCell id="IzLwQXIFzaAnTu4mcyQ_-170" value="" style="ellipse;whiteSpace=wrap;html=1;aspect=fixed;fontSize=16;fillColor=#dae8fc;strokeColor=#6c8ebf;" vertex="1" parent="IzLwQXIFzaAnTu4mcyQ_-167">
          <mxGeometry x="63.79415691107002" y="52.500898817518696" width="16.205843088929967" height="16.205843088929967" as="geometry" />
        </mxCell>
        <mxCell id="IzLwQXIFzaAnTu4mcyQ_-171" style="edgeStyle=none;rounded=0;orthogonalLoop=1;jettySize=auto;html=1;entryX=0.5;entryY=0;entryDx=0;entryDy=0;exitX=0.5;exitY=1;exitDx=0;exitDy=0;fontSize=16;fillColor=#dae8fc;strokeColor=#6c8ebf;" edge="1" parent="IzLwQXIFzaAnTu4mcyQ_-167" target="IzLwQXIFzaAnTu4mcyQ_-170">
          <mxGeometry relative="1" as="geometry">
            <mxPoint x="39.808610597658586" as="sourcePoint" />
          </mxGeometry>
        </mxCell>
        <mxCell id="IzLwQXIFzaAnTu4mcyQ_-173" value="" style="ellipse;whiteSpace=wrap;html=1;aspect=fixed;fontSize=16;fillColor=#dae8fc;strokeColor=#6c8ebf;" vertex="1" parent="1">
          <mxGeometry x="478.2221126760564" y="239.99756097560967" width="35.563380281690144" height="35.563380281690144" as="geometry" />
        </mxCell>
        <mxCell id="IzLwQXIFzaAnTu4mcyQ_-174" value="" style="group" vertex="1" connectable="0" parent="1">
          <mxGeometry x="426" y="275.56" width="140" height="99.32" as="geometry" />
        </mxCell>
        <mxCell id="IzLwQXIFzaAnTu4mcyQ_-175" value="" style="ellipse;whiteSpace=wrap;html=1;aspect=fixed;fontSize=16;fillColor=#dae8fc;strokeColor=#6c8ebf;" vertex="1" parent="IzLwQXIFzaAnTu4mcyQ_-174">
          <mxGeometry y="65.17986588194945" width="28.360225405627443" height="28.360225405627443" as="geometry" />
        </mxCell>
        <mxCell id="IzLwQXIFzaAnTu4mcyQ_-176" style="edgeStyle=none;rounded=0;orthogonalLoop=1;jettySize=auto;html=1;entryX=0.5;entryY=0;entryDx=0;entryDy=0;exitX=0.5;exitY=1;exitDx=0;exitDy=0;fontSize=16;fillColor=#dae8fc;strokeColor=#6c8ebf;" edge="1" parent="IzLwQXIFzaAnTu4mcyQ_-174" target="IzLwQXIFzaAnTu4mcyQ_-175">
          <mxGeometry relative="1" as="geometry">
            <mxPoint x="69.66506854590253" as="sourcePoint" />
          </mxGeometry>
        </mxCell>
        <mxCell id="IzLwQXIFzaAnTu4mcyQ_-177" value="" style="ellipse;whiteSpace=wrap;html=1;aspect=fixed;fontSize=16;fillColor=#dae8fc;strokeColor=#6c8ebf;" vertex="1" parent="IzLwQXIFzaAnTu4mcyQ_-174">
          <mxGeometry x="111.63977459437254" y="65.17986588194945" width="28.360225405627443" height="28.360225405627443" as="geometry" />
        </mxCell>
        <mxCell id="IzLwQXIFzaAnTu4mcyQ_-178" style="edgeStyle=none;rounded=0;orthogonalLoop=1;jettySize=auto;html=1;entryX=0.5;entryY=0;entryDx=0;entryDy=0;exitX=0.5;exitY=1;exitDx=0;exitDy=0;fontSize=16;fillColor=#dae8fc;strokeColor=#6c8ebf;" edge="1" parent="IzLwQXIFzaAnTu4mcyQ_-174" target="IzLwQXIFzaAnTu4mcyQ_-177">
          <mxGeometry relative="1" as="geometry">
            <mxPoint x="69.66506854590253" as="sourcePoint" />
          </mxGeometry>
        </mxCell>
        <mxCell id="IzLwQXIFzaAnTu4mcyQ_-179" value="" style="group" vertex="1" connectable="0" parent="1">
          <mxGeometry x="400" y="368.56" width="80" height="80" as="geometry" />
        </mxCell>
        <mxCell id="IzLwQXIFzaAnTu4mcyQ_-180" value="" style="ellipse;whiteSpace=wrap;html=1;aspect=fixed;fontSize=16;fillColor=#dae8fc;strokeColor=#6c8ebf;" vertex="1" parent="IzLwQXIFzaAnTu4mcyQ_-179">
          <mxGeometry y="52.500898817518696" width="16.205843088929967" height="16.205843088929967" as="geometry" />
        </mxCell>
        <mxCell id="IzLwQXIFzaAnTu4mcyQ_-181" style="edgeStyle=none;rounded=0;orthogonalLoop=1;jettySize=auto;html=1;entryX=0.5;entryY=0;entryDx=0;entryDy=0;exitX=0.5;exitY=1;exitDx=0;exitDy=0;fontSize=16;fillColor=#dae8fc;strokeColor=#6c8ebf;" edge="1" parent="IzLwQXIFzaAnTu4mcyQ_-179" target="IzLwQXIFzaAnTu4mcyQ_-180">
          <mxGeometry relative="1" as="geometry">
            <mxPoint x="39.808610597658586" as="sourcePoint" />
          </mxGeometry>
        </mxCell>
        <mxCell id="IzLwQXIFzaAnTu4mcyQ_-182" value="" style="ellipse;whiteSpace=wrap;html=1;aspect=fixed;fontSize=16;fillColor=#dae8fc;strokeColor=#6c8ebf;" vertex="1" parent="IzLwQXIFzaAnTu4mcyQ_-179">
          <mxGeometry x="63.79415691107002" y="52.500898817518696" width="16.205843088929967" height="16.205843088929967" as="geometry" />
        </mxCell>
        <mxCell id="IzLwQXIFzaAnTu4mcyQ_-183" style="edgeStyle=none;rounded=0;orthogonalLoop=1;jettySize=auto;html=1;entryX=0.5;entryY=0;entryDx=0;entryDy=0;exitX=0.5;exitY=1;exitDx=0;exitDy=0;fontSize=16;fillColor=#dae8fc;strokeColor=#6c8ebf;" edge="1" parent="IzLwQXIFzaAnTu4mcyQ_-179" target="IzLwQXIFzaAnTu4mcyQ_-182">
          <mxGeometry relative="1" as="geometry">
            <mxPoint x="39.808610597658586" as="sourcePoint" />
          </mxGeometry>
        </mxCell>
        <mxCell id="IzLwQXIFzaAnTu4mcyQ_-184" value="" style="group" vertex="1" connectable="0" parent="1">
          <mxGeometry x="511" y="367.56" width="80" height="80" as="geometry" />
        </mxCell>
        <mxCell id="IzLwQXIFzaAnTu4mcyQ_-185" value="" style="ellipse;whiteSpace=wrap;html=1;aspect=fixed;fontSize=16;fillColor=#dae8fc;strokeColor=#6c8ebf;" vertex="1" parent="IzLwQXIFzaAnTu4mcyQ_-184">
          <mxGeometry y="52.500898817518696" width="16.205843088929967" height="16.205843088929967" as="geometry" />
        </mxCell>
        <mxCell id="IzLwQXIFzaAnTu4mcyQ_-186" style="edgeStyle=none;rounded=0;orthogonalLoop=1;jettySize=auto;html=1;entryX=0.5;entryY=0;entryDx=0;entryDy=0;exitX=0.5;exitY=1;exitDx=0;exitDy=0;fontSize=16;fillColor=#dae8fc;strokeColor=#6c8ebf;" edge="1" parent="IzLwQXIFzaAnTu4mcyQ_-184" target="IzLwQXIFzaAnTu4mcyQ_-185">
          <mxGeometry relative="1" as="geometry">
            <mxPoint x="39.808610597658586" as="sourcePoint" />
          </mxGeometry>
        </mxCell>
        <mxCell id="IzLwQXIFzaAnTu4mcyQ_-187" value="" style="ellipse;whiteSpace=wrap;html=1;aspect=fixed;fontSize=16;fillColor=#dae8fc;strokeColor=#6c8ebf;" vertex="1" parent="IzLwQXIFzaAnTu4mcyQ_-184">
          <mxGeometry x="63.79415691107002" y="52.500898817518696" width="16.205843088929967" height="16.205843088929967" as="geometry" />
        </mxCell>
        <mxCell id="IzLwQXIFzaAnTu4mcyQ_-188" style="edgeStyle=none;rounded=0;orthogonalLoop=1;jettySize=auto;html=1;entryX=0.5;entryY=0;entryDx=0;entryDy=0;exitX=0.5;exitY=1;exitDx=0;exitDy=0;fontSize=16;fillColor=#dae8fc;strokeColor=#6c8ebf;" edge="1" parent="IzLwQXIFzaAnTu4mcyQ_-184" target="IzLwQXIFzaAnTu4mcyQ_-187">
          <mxGeometry relative="1" as="geometry">
            <mxPoint x="39.808610597658586" as="sourcePoint" />
          </mxGeometry>
        </mxCell>
        <mxCell id="IzLwQXIFzaAnTu4mcyQ_-189" value="" style="ellipse;whiteSpace=wrap;html=1;aspect=fixed;fontSize=16;fillColor=#dae8fc;strokeColor=#6c8ebf;" vertex="1" parent="1">
          <mxGeometry x="793.4495774647887" y="151.6570731707317" width="35.563380281690144" height="35.563380281690144" as="geometry" />
        </mxCell>
        <mxCell id="IzLwQXIFzaAnTu4mcyQ_-190" value="" style="ellipse;whiteSpace=wrap;html=1;aspect=fixed;fontSize=16;fillColor=#dae8fc;strokeColor=#6c8ebf;" vertex="1" parent="1">
          <mxGeometry x="691.6721126760565" y="239.99756097560967" width="35.563380281690144" height="35.563380281690144" as="geometry" />
        </mxCell>
        <mxCell id="IzLwQXIFzaAnTu4mcyQ_-191" style="edgeStyle=none;rounded=0;orthogonalLoop=1;jettySize=auto;html=1;entryX=0.5;entryY=0;entryDx=0;entryDy=0;exitX=0.5;exitY=1;exitDx=0;exitDy=0;fontSize=16;fillColor=#dae8fc;strokeColor=#6c8ebf;" edge="1" parent="1" source="IzLwQXIFzaAnTu4mcyQ_-189" target="IzLwQXIFzaAnTu4mcyQ_-190">
          <mxGeometry relative="1" as="geometry" />
        </mxCell>
        <mxCell id="IzLwQXIFzaAnTu4mcyQ_-192" style="edgeStyle=none;rounded=0;orthogonalLoop=1;jettySize=auto;html=1;exitX=0.5;exitY=1;exitDx=0;exitDy=0;fontSize=16;fillColor=#dae8fc;strokeColor=#6c8ebf;" edge="1" parent="1" source="IzLwQXIFzaAnTu4mcyQ_-189">
          <mxGeometry relative="1" as="geometry">
            <mxPoint x="933.45" y="240" as="targetPoint" />
          </mxGeometry>
        </mxCell>
        <mxCell id="IzLwQXIFzaAnTu4mcyQ_-193" value="" style="group" vertex="1" connectable="0" parent="1">
          <mxGeometry x="639.45" y="275.56" width="140" height="99.32" as="geometry" />
        </mxCell>
        <mxCell id="IzLwQXIFzaAnTu4mcyQ_-194" value="" style="ellipse;whiteSpace=wrap;html=1;aspect=fixed;fontSize=16;fillColor=#dae8fc;strokeColor=#6c8ebf;" vertex="1" parent="IzLwQXIFzaAnTu4mcyQ_-193">
          <mxGeometry y="65.17986588194945" width="28.360225405627443" height="28.360225405627443" as="geometry" />
        </mxCell>
        <mxCell id="IzLwQXIFzaAnTu4mcyQ_-195" style="edgeStyle=none;rounded=0;orthogonalLoop=1;jettySize=auto;html=1;entryX=0.5;entryY=0;entryDx=0;entryDy=0;exitX=0.5;exitY=1;exitDx=0;exitDy=0;fontSize=16;fillColor=#dae8fc;strokeColor=#6c8ebf;" edge="1" parent="IzLwQXIFzaAnTu4mcyQ_-193" target="IzLwQXIFzaAnTu4mcyQ_-194">
          <mxGeometry relative="1" as="geometry">
            <mxPoint x="69.66506854590253" as="sourcePoint" />
          </mxGeometry>
        </mxCell>
        <mxCell id="IzLwQXIFzaAnTu4mcyQ_-196" value="" style="ellipse;whiteSpace=wrap;html=1;aspect=fixed;fontSize=16;fillColor=#dae8fc;strokeColor=#6c8ebf;" vertex="1" parent="IzLwQXIFzaAnTu4mcyQ_-193">
          <mxGeometry x="111.63977459437254" y="65.17986588194945" width="28.360225405627443" height="28.360225405627443" as="geometry" />
        </mxCell>
        <mxCell id="IzLwQXIFzaAnTu4mcyQ_-197" style="edgeStyle=none;rounded=0;orthogonalLoop=1;jettySize=auto;html=1;entryX=0.5;entryY=0;entryDx=0;entryDy=0;exitX=0.5;exitY=1;exitDx=0;exitDy=0;fontSize=16;fillColor=#dae8fc;strokeColor=#6c8ebf;" edge="1" parent="IzLwQXIFzaAnTu4mcyQ_-193" target="IzLwQXIFzaAnTu4mcyQ_-196">
          <mxGeometry relative="1" as="geometry">
            <mxPoint x="69.66506854590253" as="sourcePoint" />
          </mxGeometry>
        </mxCell>
        <mxCell id="IzLwQXIFzaAnTu4mcyQ_-198" value="" style="group" vertex="1" connectable="0" parent="1">
          <mxGeometry x="613.45" y="368.56" width="80" height="80" as="geometry" />
        </mxCell>
        <mxCell id="IzLwQXIFzaAnTu4mcyQ_-199" value="" style="ellipse;whiteSpace=wrap;html=1;aspect=fixed;fontSize=16;fillColor=#dae8fc;strokeColor=#6c8ebf;" vertex="1" parent="IzLwQXIFzaAnTu4mcyQ_-198">
          <mxGeometry y="52.500898817518696" width="16.205843088929967" height="16.205843088929967" as="geometry" />
        </mxCell>
        <mxCell id="IzLwQXIFzaAnTu4mcyQ_-200" style="edgeStyle=none;rounded=0;orthogonalLoop=1;jettySize=auto;html=1;entryX=0.5;entryY=0;entryDx=0;entryDy=0;exitX=0.5;exitY=1;exitDx=0;exitDy=0;fontSize=16;fillColor=#dae8fc;strokeColor=#6c8ebf;" edge="1" parent="IzLwQXIFzaAnTu4mcyQ_-198" target="IzLwQXIFzaAnTu4mcyQ_-199">
          <mxGeometry relative="1" as="geometry">
            <mxPoint x="39.808610597658586" as="sourcePoint" />
          </mxGeometry>
        </mxCell>
        <mxCell id="IzLwQXIFzaAnTu4mcyQ_-201" value="" style="ellipse;whiteSpace=wrap;html=1;aspect=fixed;fontSize=16;fillColor=#dae8fc;strokeColor=#6c8ebf;" vertex="1" parent="IzLwQXIFzaAnTu4mcyQ_-198">
          <mxGeometry x="63.79415691107002" y="52.500898817518696" width="16.205843088929967" height="16.205843088929967" as="geometry" />
        </mxCell>
        <mxCell id="IzLwQXIFzaAnTu4mcyQ_-202" style="edgeStyle=none;rounded=0;orthogonalLoop=1;jettySize=auto;html=1;entryX=0.5;entryY=0;entryDx=0;entryDy=0;exitX=0.5;exitY=1;exitDx=0;exitDy=0;fontSize=16;fillColor=#dae8fc;strokeColor=#6c8ebf;" edge="1" parent="IzLwQXIFzaAnTu4mcyQ_-198" target="IzLwQXIFzaAnTu4mcyQ_-201">
          <mxGeometry relative="1" as="geometry">
            <mxPoint x="39.808610597658586" as="sourcePoint" />
          </mxGeometry>
        </mxCell>
        <mxCell id="IzLwQXIFzaAnTu4mcyQ_-203" value="" style="group" vertex="1" connectable="0" parent="1">
          <mxGeometry x="724.45" y="367.56" width="80" height="80" as="geometry" />
        </mxCell>
        <mxCell id="IzLwQXIFzaAnTu4mcyQ_-204" value="" style="ellipse;whiteSpace=wrap;html=1;aspect=fixed;fontSize=16;fillColor=#dae8fc;strokeColor=#6c8ebf;" vertex="1" parent="IzLwQXIFzaAnTu4mcyQ_-203">
          <mxGeometry y="52.500898817518696" width="16.205843088929967" height="16.205843088929967" as="geometry" />
        </mxCell>
        <mxCell id="IzLwQXIFzaAnTu4mcyQ_-205" style="edgeStyle=none;rounded=0;orthogonalLoop=1;jettySize=auto;html=1;entryX=0.5;entryY=0;entryDx=0;entryDy=0;exitX=0.5;exitY=1;exitDx=0;exitDy=0;fontSize=16;fillColor=#dae8fc;strokeColor=#6c8ebf;" edge="1" parent="IzLwQXIFzaAnTu4mcyQ_-203" target="IzLwQXIFzaAnTu4mcyQ_-204">
          <mxGeometry relative="1" as="geometry">
            <mxPoint x="39.808610597658586" as="sourcePoint" />
          </mxGeometry>
        </mxCell>
        <mxCell id="IzLwQXIFzaAnTu4mcyQ_-206" value="" style="ellipse;whiteSpace=wrap;html=1;aspect=fixed;fontSize=16;fillColor=#dae8fc;strokeColor=#6c8ebf;" vertex="1" parent="IzLwQXIFzaAnTu4mcyQ_-203">
          <mxGeometry x="63.79415691107002" y="52.500898817518696" width="16.205843088929967" height="16.205843088929967" as="geometry" />
        </mxCell>
        <mxCell id="IzLwQXIFzaAnTu4mcyQ_-207" style="edgeStyle=none;rounded=0;orthogonalLoop=1;jettySize=auto;html=1;entryX=0.5;entryY=0;entryDx=0;entryDy=0;exitX=0.5;exitY=1;exitDx=0;exitDy=0;fontSize=16;fillColor=#dae8fc;strokeColor=#6c8ebf;" edge="1" parent="IzLwQXIFzaAnTu4mcyQ_-203" target="IzLwQXIFzaAnTu4mcyQ_-206">
          <mxGeometry relative="1" as="geometry">
            <mxPoint x="39.808610597658586" as="sourcePoint" />
          </mxGeometry>
        </mxCell>
        <mxCell id="IzLwQXIFzaAnTu4mcyQ_-208" value="" style="ellipse;whiteSpace=wrap;html=1;aspect=fixed;fontSize=16;fillColor=#dae8fc;strokeColor=#6c8ebf;" vertex="1" parent="1">
          <mxGeometry x="911.6721126760565" y="239.99756097560967" width="35.563380281690144" height="35.563380281690144" as="geometry" />
        </mxCell>
        <mxCell id="IzLwQXIFzaAnTu4mcyQ_-209" value="" style="group" vertex="1" connectable="0" parent="1">
          <mxGeometry x="859.45" y="275.56" width="140" height="99.32" as="geometry" />
        </mxCell>
        <mxCell id="IzLwQXIFzaAnTu4mcyQ_-210" value="" style="ellipse;whiteSpace=wrap;html=1;aspect=fixed;fontSize=16;fillColor=#dae8fc;strokeColor=#6c8ebf;" vertex="1" parent="IzLwQXIFzaAnTu4mcyQ_-209">
          <mxGeometry y="65.17986588194945" width="28.360225405627443" height="28.360225405627443" as="geometry" />
        </mxCell>
        <mxCell id="IzLwQXIFzaAnTu4mcyQ_-211" style="edgeStyle=none;rounded=0;orthogonalLoop=1;jettySize=auto;html=1;entryX=0.5;entryY=0;entryDx=0;entryDy=0;exitX=0.5;exitY=1;exitDx=0;exitDy=0;fontSize=16;fillColor=#dae8fc;strokeColor=#6c8ebf;" edge="1" parent="IzLwQXIFzaAnTu4mcyQ_-209" target="IzLwQXIFzaAnTu4mcyQ_-210">
          <mxGeometry relative="1" as="geometry">
            <mxPoint x="69.66506854590253" as="sourcePoint" />
          </mxGeometry>
        </mxCell>
        <mxCell id="IzLwQXIFzaAnTu4mcyQ_-212" value="" style="ellipse;whiteSpace=wrap;html=1;aspect=fixed;fontSize=16;fillColor=#dae8fc;strokeColor=#6c8ebf;" vertex="1" parent="IzLwQXIFzaAnTu4mcyQ_-209">
          <mxGeometry x="111.63977459437254" y="65.17986588194945" width="28.360225405627443" height="28.360225405627443" as="geometry" />
        </mxCell>
        <mxCell id="IzLwQXIFzaAnTu4mcyQ_-213" style="edgeStyle=none;rounded=0;orthogonalLoop=1;jettySize=auto;html=1;entryX=0.5;entryY=0;entryDx=0;entryDy=0;exitX=0.5;exitY=1;exitDx=0;exitDy=0;fontSize=16;fillColor=#dae8fc;strokeColor=#6c8ebf;" edge="1" parent="IzLwQXIFzaAnTu4mcyQ_-209" target="IzLwQXIFzaAnTu4mcyQ_-212">
          <mxGeometry relative="1" as="geometry">
            <mxPoint x="69.66506854590253" as="sourcePoint" />
          </mxGeometry>
        </mxCell>
        <mxCell id="IzLwQXIFzaAnTu4mcyQ_-214" value="" style="group" vertex="1" connectable="0" parent="1">
          <mxGeometry x="833.45" y="368.56" width="80" height="80" as="geometry" />
        </mxCell>
        <mxCell id="IzLwQXIFzaAnTu4mcyQ_-215" value="" style="ellipse;whiteSpace=wrap;html=1;aspect=fixed;fontSize=16;fillColor=#dae8fc;strokeColor=#6c8ebf;" vertex="1" parent="IzLwQXIFzaAnTu4mcyQ_-214">
          <mxGeometry y="52.500898817518696" width="16.205843088929967" height="16.205843088929967" as="geometry" />
        </mxCell>
        <mxCell id="IzLwQXIFzaAnTu4mcyQ_-216" style="edgeStyle=none;rounded=0;orthogonalLoop=1;jettySize=auto;html=1;entryX=0.5;entryY=0;entryDx=0;entryDy=0;exitX=0.5;exitY=1;exitDx=0;exitDy=0;fontSize=16;fillColor=#dae8fc;strokeColor=#6c8ebf;" edge="1" parent="IzLwQXIFzaAnTu4mcyQ_-214" target="IzLwQXIFzaAnTu4mcyQ_-215">
          <mxGeometry relative="1" as="geometry">
            <mxPoint x="39.808610597658586" as="sourcePoint" />
          </mxGeometry>
        </mxCell>
        <mxCell id="IzLwQXIFzaAnTu4mcyQ_-217" value="" style="ellipse;whiteSpace=wrap;html=1;aspect=fixed;fontSize=16;fillColor=#dae8fc;strokeColor=#6c8ebf;" vertex="1" parent="IzLwQXIFzaAnTu4mcyQ_-214">
          <mxGeometry x="63.79415691107002" y="52.500898817518696" width="16.205843088929967" height="16.205843088929967" as="geometry" />
        </mxCell>
        <mxCell id="IzLwQXIFzaAnTu4mcyQ_-218" style="edgeStyle=none;rounded=0;orthogonalLoop=1;jettySize=auto;html=1;entryX=0.5;entryY=0;entryDx=0;entryDy=0;exitX=0.5;exitY=1;exitDx=0;exitDy=0;fontSize=16;fillColor=#dae8fc;strokeColor=#6c8ebf;" edge="1" parent="IzLwQXIFzaAnTu4mcyQ_-214" target="IzLwQXIFzaAnTu4mcyQ_-217">
          <mxGeometry relative="1" as="geometry">
            <mxPoint x="39.808610597658586" as="sourcePoint" />
          </mxGeometry>
        </mxCell>
        <mxCell id="IzLwQXIFzaAnTu4mcyQ_-219" value="" style="group" vertex="1" connectable="0" parent="1">
          <mxGeometry x="944.45" y="367.56" width="80" height="80" as="geometry" />
        </mxCell>
        <mxCell id="IzLwQXIFzaAnTu4mcyQ_-220" value="" style="ellipse;whiteSpace=wrap;html=1;aspect=fixed;fontSize=16;fillColor=#dae8fc;strokeColor=#6c8ebf;" vertex="1" parent="IzLwQXIFzaAnTu4mcyQ_-219">
          <mxGeometry y="52.500898817518696" width="16.205843088929967" height="16.205843088929967" as="geometry" />
        </mxCell>
        <mxCell id="IzLwQXIFzaAnTu4mcyQ_-221" style="edgeStyle=none;rounded=0;orthogonalLoop=1;jettySize=auto;html=1;entryX=0.5;entryY=0;entryDx=0;entryDy=0;exitX=0.5;exitY=1;exitDx=0;exitDy=0;fontSize=16;fillColor=#dae8fc;strokeColor=#6c8ebf;" edge="1" parent="IzLwQXIFzaAnTu4mcyQ_-219" target="IzLwQXIFzaAnTu4mcyQ_-220">
          <mxGeometry relative="1" as="geometry">
            <mxPoint x="39.808610597658586" as="sourcePoint" />
          </mxGeometry>
        </mxCell>
        <mxCell id="IzLwQXIFzaAnTu4mcyQ_-222" value="" style="ellipse;whiteSpace=wrap;html=1;aspect=fixed;fontSize=16;fillColor=#dae8fc;strokeColor=#6c8ebf;" vertex="1" parent="IzLwQXIFzaAnTu4mcyQ_-219">
          <mxGeometry x="63.79415691107002" y="52.500898817518696" width="16.205843088929967" height="16.205843088929967" as="geometry" />
        </mxCell>
        <mxCell id="IzLwQXIFzaAnTu4mcyQ_-223" style="edgeStyle=none;rounded=0;orthogonalLoop=1;jettySize=auto;html=1;entryX=0.5;entryY=0;entryDx=0;entryDy=0;exitX=0.5;exitY=1;exitDx=0;exitDy=0;fontSize=16;fillColor=#dae8fc;strokeColor=#6c8ebf;" edge="1" parent="IzLwQXIFzaAnTu4mcyQ_-219" target="IzLwQXIFzaAnTu4mcyQ_-222">
          <mxGeometry relative="1" as="geometry">
            <mxPoint x="39.808610597658586" as="sourcePoint" />
          </mxGeometry>
        </mxCell>
        <mxCell id="IzLwQXIFzaAnTu4mcyQ_-224" value="L5" style="text;html=1;align=center;verticalAlign=middle;resizable=0;points=[];autosize=1;strokeColor=none;fillColor=none;fontSize=16;" vertex="1" parent="1">
          <mxGeometry x="150.00436619718312" y="420.000731707317" width="30" height="20" as="geometry" />
        </mxCell>
      </root>
    </mxGraphModel>
  </diagram>
</mxfile>
